<?xml version="1.0" encoding="utf-8"?>
<!-- Generator: Adobe Illustrator 12.0.1, SVG Export Plug-In . SVG Version: 6.00 Build 51448)  -->
<!DOCTYPE svg PUBLIC "-//W3C//DTD SVG 1.1//EN" "http://www.w3.org/Graphics/SVG/1.1/DTD/svg11.dtd" [
	<!ENTITY ns_svg "http://www.w3.org/2000/svg">
	<!ENTITY ns_xlink "http://www.w3.org/1999/xlink">
	<!ENTITY st0 "fill:none;stroke:#6699CC;">
	<!ENTITY st1 "fill:#FFFFFF;stroke:#000000;stroke-width:2;">
	<!ENTITY st2 "fill:none;stroke:#000000;stroke-width:0.75;">
	<!ENTITY st3 "fill:#FFFFFF;">
	<!ENTITY st4 "fill:none;stroke:#6699CC;stroke-width:0.75;stroke-dasharray:4 4;">
	<!ENTITY st5 "fill:#6699CC;">
]>
<svg  version="1.1" id="Layer_1" xmlns="&ns_svg;" xmlns:xlink="&ns_xlink;" width="262" height="349" viewBox="0 0 262 349"
	 style="overflow:visible;enable-background:new 0 0 262 349;" xml:space="preserve">
<g>
	<rect style="&st3;" width="262" height="349"/>
	<path style="&st1;" d="M133.35,85.89h12c17.673,0,32-14.327,32-32s-14.327-32-32-32h-12V85.89z"/>
	<g>
		<polygon style="&st1;" points="68.599,55.89 68.599,87.89 92.599,71.89 		"/>
		<circle style="&st1;" cx="97.293" cy="71.89" r="4.694"/>
	</g>
	<g>
		<line style="&st2;" x1="133.35" y1="35.89" x2="17.35" y2="35.89"/>
		<line style="&st2;" x1="101.987" y1="71.89" x2="133.35" y2="71.89"/>
		<polyline style="&st2;" points="41.35,35.89 41.35,71.89 68.599,71.89 		"/>
		<line style="&st2;" x1="177.35" y1="53.89" x2="245.35" y2="53.89"/>
	</g>
	<g>
		<path d="M22.558,31.546c0.465-0.116,0.833-0.331,1.103-0.646s0.809-1.158,1.615-2.531l6.134-10.495h0.461l2.015,11.878
			c0.129,0.766,0.282,1.242,0.46,1.43c0.177,0.188,0.555,0.31,1.135,0.364v0.344h-5.192v-0.344c0.622-0.062,1.025-0.136,1.21-0.225
			c0.294-0.137,0.441-0.402,0.441-0.798c0-0.102-0.004-0.211-0.011-0.326c-0.007-0.116-0.017-0.215-0.031-0.297l-0.443-2.745h-4.471
			l-1.32,2.355c-0.089,0.157-0.167,0.324-0.236,0.501c-0.116,0.313-0.174,0.576-0.174,0.787c0,0.267,0.091,0.454,0.271,0.562
			c0.182,0.109,0.504,0.171,0.969,0.185v0.344h-3.936V31.546z M31.333,26.405l-0.878-5.444l-3.051,5.444H31.333z"/>
	</g>
	<g>
		<path d="M189.51,49.545c0.465-0.116,0.833-0.331,1.103-0.646s0.809-1.158,1.615-2.531l6.134-10.495h0.461l2.015,11.878
			c0.129,0.766,0.282,1.242,0.46,1.43c0.177,0.188,0.555,0.31,1.135,0.364v0.344h-5.192v-0.344c0.622-0.062,1.025-0.136,1.21-0.225
			c0.294-0.137,0.441-0.402,0.441-0.798c0-0.102-0.004-0.211-0.011-0.326c-0.007-0.116-0.017-0.215-0.031-0.297l-0.443-2.745h-4.471
			l-1.32,2.355c-0.089,0.157-0.167,0.324-0.236,0.501c-0.116,0.313-0.174,0.576-0.174,0.787c0,0.267,0.091,0.454,0.271,0.562
			c0.182,0.109,0.504,0.171,0.969,0.185v0.344h-3.936V49.545z M198.286,44.404l-0.878-5.443l-3.051,5.443H198.286z"/>
	</g>
	<g>
		<path d="M220.221,49.889h-1.189l-4.366-12.038l-4.387,12.038h-1.199l5.375-14.109h0.422L220.221,49.889z"/>
	</g>
	<g>
		<path style="&st5;" d="M74.506,93.748h0.32l5.164,11.203H69.334L74.506,93.748z M70.491,104.279h7.297l-3.648-7.953
			L70.491,104.279z"/>
		<path style="&st5;" d="M81.846,104.301c0.005-0.056,0.016-0.112,0.031-0.17l1.51-5.453H82.2c0-0.141,0.011-0.229,0.032-0.266
			c0.021-0.036,0.074-0.073,0.158-0.11c0.531-0.226,0.942-0.443,1.233-0.653c0.292-0.209,0.69-0.613,1.194-1.212l0.125-0.149
			c0.016-0.021,0.035-0.037,0.059-0.051c0.023-0.013,0.048-0.02,0.074-0.02c0.052,0.011,0.088,0.021,0.109,0.031
			c0.016,0.036,0.024,0.069,0.027,0.098c0.002,0.028,0.001,0.059-0.004,0.09l-0.466,1.703h1.294l-0.094,0.539h-1.355l-1.454,5.251
			c-0.026,0.094-0.019,0.183,0.023,0.269c0.042,0.086,0.112,0.129,0.211,0.129c0.136,0,0.326-0.134,0.571-0.401
			c0.141-0.145,0.378-0.43,0.712-0.856l0.203,0.117l-0.109,0.163c-0.446,0.67-0.84,1.135-1.18,1.397
			c-0.341,0.262-0.664,0.393-0.97,0.393c-0.265,0-0.458-0.071-0.577-0.212c-0.12-0.143-0.179-0.303-0.179-0.48
			C81.838,104.404,81.84,104.355,81.846,104.301z"/>
		<path style="&st5;" d="M89.674,102.834c0.001,0.009,0.002,0.028,0.002,0.06v6.269c0,0.268,0.072,0.438,0.214,0.511
			c0.144,0.072,0.41,0.116,0.801,0.13v0.148h-2.945v-0.156c0.42-0.021,0.694-0.079,0.823-0.174s0.193-0.3,0.193-0.615v-4.812
			c0-0.165-0.021-0.291-0.062-0.378c-0.042-0.086-0.131-0.13-0.27-0.13c-0.09,0-0.207,0.025-0.351,0.075
			c-0.144,0.051-0.278,0.104-0.403,0.159v-0.148l1.912-0.977h0.062C89.665,102.812,89.672,102.825,89.674,102.834z"/>
	</g>
	<g>
		<path style="&st5;" d="M145.923,93.748h0.32l5.164,11.203h-10.656L145.923,93.748z M141.907,104.279h7.297l-3.648-7.953
			L141.907,104.279z"/>
		<path style="&st5;" d="M153.262,104.301c0.005-0.056,0.016-0.112,0.031-0.17l1.51-5.453h-1.188c0-0.141,0.011-0.229,0.032-0.266
			c0.021-0.036,0.074-0.073,0.158-0.11c0.531-0.226,0.942-0.443,1.233-0.653c0.292-0.209,0.69-0.613,1.194-1.212l0.125-0.149
			c0.016-0.021,0.035-0.037,0.059-0.051c0.023-0.013,0.048-0.02,0.074-0.02c0.052,0.011,0.088,0.021,0.109,0.031
			c0.016,0.036,0.024,0.069,0.027,0.098c0.002,0.028,0.001,0.059-0.004,0.09l-0.466,1.703h1.294l-0.094,0.539h-1.355l-1.454,5.251
			c-0.026,0.094-0.019,0.183,0.023,0.269c0.042,0.086,0.112,0.129,0.211,0.129c0.136,0,0.326-0.134,0.571-0.401
			c0.141-0.145,0.378-0.43,0.712-0.856l0.203,0.117l-0.109,0.163c-0.446,0.67-0.84,1.135-1.18,1.397
			c-0.341,0.262-0.664,0.393-0.97,0.393c-0.265,0-0.458-0.071-0.577-0.212c-0.12-0.143-0.179-0.303-0.179-0.48
			C153.254,104.404,153.257,104.355,153.262,104.301z"/>
		<path style="&st5;" d="M158.226,109.83c1.272-1.319,2.135-2.288,2.59-2.906c0.456-0.618,0.683-1.221,0.683-1.808
			c0-0.515-0.139-0.906-0.417-1.176c-0.278-0.269-0.61-0.403-0.996-0.403c-0.476,0-0.862,0.174-1.157,0.521
			c-0.164,0.19-0.32,0.484-0.469,0.88l-0.224-0.047c0.174-0.798,0.469-1.352,0.884-1.662c0.416-0.311,0.861-0.466,1.338-0.466
			c0.587,0,1.063,0.185,1.426,0.555s0.545,0.822,0.545,1.356c0,0.57-0.197,1.118-0.59,1.646c-0.394,0.527-1.25,1.467-2.566,2.817
			h2.396c0.334,0,0.569-0.04,0.705-0.12s0.289-0.274,0.459-0.583l0.135,0.062l-0.576,1.453h-4.167V109.83z"/>
	</g>
	<g>
		<g>
			<path d="M109.185,67.546c0.465-0.116,0.833-0.331,1.103-0.646s0.809-1.158,1.615-2.531l6.134-10.495h0.461l2.015,11.878
				c0.129,0.766,0.282,1.242,0.46,1.43c0.177,0.188,0.555,0.31,1.135,0.364v0.344h-5.192v-0.344c0.622-0.062,1.025-0.136,1.21-0.225
				c0.294-0.137,0.441-0.402,0.441-0.798c0-0.102-0.004-0.211-0.011-0.326c-0.007-0.116-0.017-0.215-0.031-0.297l-0.443-2.745
				h-4.471l-1.32,2.355c-0.089,0.157-0.167,0.324-0.236,0.501c-0.116,0.313-0.174,0.576-0.174,0.787
				c0,0.267,0.091,0.454,0.271,0.562c0.182,0.109,0.504,0.171,0.969,0.185v0.344h-3.936V67.546z M117.961,62.405l-0.878-5.444
				l-3.051,5.444H117.961z"/>
		</g>
		<g>
			<path d="M111.229,48.952h10.551l-0.195,0.969h-10.551L111.229,48.952z"/>
		</g>
	</g>
	<g>
		<g>
			<path d="M226.855,49.545c0.465-0.116,0.833-0.331,1.103-0.646s0.809-1.158,1.615-2.531l6.134-10.495h0.461l2.015,11.878
				c0.129,0.766,0.282,1.242,0.46,1.43c0.177,0.188,0.555,0.31,1.135,0.364v0.344h-5.192v-0.344c0.622-0.062,1.025-0.136,1.21-0.225
				c0.294-0.137,0.441-0.402,0.441-0.798c0-0.102-0.004-0.211-0.011-0.326c-0.007-0.116-0.017-0.215-0.031-0.297l-0.443-2.745
				h-4.471l-1.32,2.355c-0.089,0.157-0.167,0.324-0.236,0.501c-0.116,0.313-0.174,0.576-0.174,0.787
				c0,0.267,0.091,0.454,0.271,0.562c0.182,0.109,0.504,0.171,0.969,0.185v0.344h-3.936V49.545z M235.631,44.404l-0.878-5.444
				l-3.051,5.444H235.631z"/>
		</g>
		<g>
			<path d="M228.9,30.951h10.551l-0.195,0.969h-10.551L228.9,30.951z"/>
		</g>
	</g>
	<line style="&st4;" x1="112.649" y1="173.886" x2="112.649" y2="329.482"/>
	<g>
		<path d="M30.053,165.543c0.465-0.116,0.833-0.331,1.103-0.646s0.809-1.158,1.615-2.531l6.134-10.495h0.461l2.015,11.878
			c0.129,0.766,0.282,1.242,0.46,1.43c0.177,0.188,0.555,0.31,1.135,0.364v0.344h-5.192v-0.344c0.622-0.062,1.025-0.136,1.21-0.225
			c0.294-0.137,0.441-0.402,0.441-0.798c0-0.102-0.004-0.211-0.011-0.326c-0.007-0.116-0.017-0.215-0.031-0.297l-0.443-2.745h-4.471
			l-1.32,2.355c-0.089,0.157-0.167,0.324-0.236,0.501c-0.116,0.313-0.174,0.576-0.174,0.787c0,0.267,0.091,0.454,0.271,0.562
			c0.182,0.109,0.504,0.171,0.969,0.185v0.344h-3.936V165.543z M38.829,160.402l-0.878-5.443l-3.051,5.443H38.829z"/>
	</g>
	<g>
		<path style="&st5;" d="M143.266,192.685h0.32l5.164,11.203h-10.656L143.266,192.685z M139.25,203.216h7.297l-3.648-7.953
			L139.25,203.216z"/>
		<path style="&st5;" d="M150.605,203.237c0.005-0.056,0.016-0.112,0.031-0.17l1.51-5.453h-1.188c0-0.141,0.011-0.229,0.032-0.266
			c0.021-0.036,0.074-0.073,0.158-0.11c0.531-0.226,0.942-0.443,1.233-0.653c0.292-0.209,0.69-0.613,1.194-1.212l0.125-0.149
			c0.016-0.021,0.035-0.037,0.059-0.051c0.023-0.013,0.048-0.02,0.074-0.02c0.052,0.011,0.088,0.021,0.109,0.031
			c0.016,0.036,0.024,0.069,0.027,0.098c0.002,0.028,0.001,0.059-0.004,0.09l-0.466,1.703h1.294l-0.094,0.539h-1.355l-1.454,5.251
			c-0.026,0.094-0.019,0.183,0.023,0.269c0.042,0.086,0.112,0.129,0.211,0.129c0.136,0,0.326-0.134,0.571-0.401
			c0.141-0.145,0.378-0.43,0.712-0.856l0.203,0.117l-0.109,0.163c-0.446,0.67-0.84,1.135-1.18,1.397
			c-0.341,0.262-0.664,0.393-0.97,0.393c-0.265,0-0.458-0.071-0.577-0.212c-0.12-0.143-0.179-0.303-0.179-0.48
			C150.597,203.341,150.6,203.292,150.605,203.237z"/>
		<path style="&st5;" d="M158.434,201.771c0.001,0.009,0.002,0.028,0.002,0.06v6.269c0,0.268,0.072,0.438,0.214,0.511
			c0.144,0.072,0.41,0.116,0.801,0.13v0.148h-2.945v-0.156c0.42-0.021,0.694-0.079,0.823-0.174s0.193-0.3,0.193-0.615v-4.812
			c0-0.165-0.021-0.291-0.062-0.378c-0.042-0.086-0.131-0.13-0.27-0.13c-0.09,0-0.207,0.025-0.351,0.075
			c-0.144,0.051-0.278,0.104-0.403,0.159v-0.148l1.912-0.977h0.062C158.424,201.749,158.432,201.762,158.434,201.771z"/>
	</g>
	<g>
		<path style="&st5;" d="M153.266,260.686h0.32l5.164,11.203h-10.656L153.266,260.686z M149.25,271.217h7.297l-3.648-7.953
			L149.25,271.217z"/>
		<path style="&st5;" d="M160.605,271.238c0.005-0.056,0.016-0.112,0.031-0.17l1.51-5.453h-1.188c0-0.141,0.011-0.229,0.032-0.266
			c0.021-0.036,0.074-0.073,0.158-0.11c0.531-0.226,0.942-0.443,1.233-0.653c0.292-0.209,0.69-0.613,1.194-1.212l0.125-0.149
			c0.016-0.021,0.035-0.037,0.059-0.051c0.023-0.013,0.048-0.02,0.074-0.02c0.052,0.011,0.088,0.021,0.109,0.031
			c0.016,0.036,0.024,0.069,0.027,0.098c0.002,0.028,0.001,0.059-0.004,0.09l-0.466,1.703h1.294l-0.094,0.539h-1.355l-1.454,5.251
			c-0.026,0.094-0.019,0.183,0.023,0.269c0.042,0.086,0.112,0.129,0.211,0.129c0.136,0,0.326-0.134,0.571-0.401
			c0.141-0.145,0.378-0.43,0.712-0.856l0.203,0.117l-0.109,0.163c-0.446,0.67-0.84,1.135-1.18,1.397
			c-0.341,0.262-0.664,0.393-0.97,0.393c-0.265,0-0.458-0.071-0.577-0.212c-0.12-0.143-0.179-0.303-0.179-0.48
			C160.598,271.342,160.6,271.293,160.605,271.238z"/>
		<path style="&st5;" d="M165.569,276.768c1.272-1.319,2.135-2.288,2.59-2.906c0.456-0.618,0.683-1.221,0.683-1.808
			c0-0.515-0.139-0.906-0.417-1.176c-0.278-0.269-0.61-0.403-0.996-0.403c-0.476,0-0.862,0.174-1.157,0.521
			c-0.164,0.19-0.32,0.484-0.469,0.88l-0.224-0.047c0.174-0.798,0.469-1.352,0.884-1.662c0.416-0.311,0.861-0.466,1.338-0.466
			c0.587,0,1.063,0.185,1.426,0.555s0.545,0.822,0.545,1.356c0,0.57-0.197,1.118-0.59,1.646c-0.394,0.527-1.25,1.467-2.566,2.817
			h2.396c0.334,0,0.569-0.04,0.705-0.12s0.289-0.274,0.459-0.583l0.135,0.062l-0.576,1.453h-4.167V276.768z"/>
	</g>
	<g>
		<path style="&st5;" d="M173.266,315.688h0.32l5.164,11.203h-10.656L173.266,315.688z M169.25,326.219h7.297l-3.648-7.953
			L169.25,326.219z"/>
		<path style="&st5;" d="M180.605,326.24c0.005-0.056,0.016-0.112,0.031-0.17l1.51-5.452h-1.188c0-0.141,0.011-0.229,0.032-0.267
			c0.021-0.036,0.074-0.073,0.158-0.11c0.531-0.226,0.942-0.442,1.233-0.652c0.292-0.21,0.69-0.614,1.194-1.212l0.125-0.149
			c0.016-0.021,0.035-0.038,0.059-0.052c0.023-0.013,0.048-0.02,0.074-0.02c0.052,0.011,0.088,0.021,0.109,0.031
			c0.016,0.037,0.024,0.069,0.027,0.098c0.002,0.029,0.001,0.059-0.004,0.09l-0.466,1.703h1.294l-0.094,0.54h-1.355l-1.454,5.25
			c-0.026,0.094-0.019,0.183,0.023,0.269c0.042,0.086,0.112,0.129,0.211,0.129c0.136,0,0.326-0.134,0.571-0.401
			c0.141-0.145,0.378-0.43,0.712-0.856l0.203,0.117l-0.109,0.163c-0.446,0.67-0.84,1.135-1.18,1.397
			c-0.341,0.262-0.664,0.393-0.97,0.393c-0.265,0-0.458-0.071-0.577-0.212c-0.12-0.143-0.179-0.303-0.179-0.48
			C180.598,326.344,180.6,326.295,180.605,326.24z"/>
		<path style="&st5;" d="M188.434,324.773c0.001,0.009,0.002,0.028,0.002,0.06v6.269c0,0.268,0.072,0.438,0.214,0.511
			c0.144,0.072,0.41,0.116,0.801,0.13v0.148h-2.945v-0.156c0.42-0.021,0.694-0.079,0.823-0.174s0.193-0.3,0.193-0.615v-4.812
			c0-0.165-0.021-0.291-0.062-0.378c-0.042-0.086-0.131-0.13-0.27-0.13c-0.09,0-0.207,0.025-0.351,0.075
			c-0.144,0.051-0.278,0.104-0.403,0.159v-0.148l1.912-0.977h0.062C188.424,324.752,188.432,324.765,188.434,324.773z"/>
		<path style="&st5;" d="M197.02,318.812h1.078v3.5h3.5v1.078h-3.5v3.5h-1.078v-3.5h-3.5v-1.078h3.5V318.812z"/>
		<path style="&st5;" d="M210.396,315.688h0.32l5.164,11.203h-10.656L210.396,315.688z M206.381,326.219h7.297l-3.648-7.953
			L206.381,326.219z"/>
		<path style="&st5;" d="M217.736,326.24c0.005-0.056,0.016-0.112,0.031-0.17l1.511-5.452h-1.188c0-0.141,0.01-0.229,0.031-0.267
			c0.021-0.036,0.073-0.073,0.158-0.11c0.531-0.226,0.942-0.442,1.234-0.652c0.291-0.21,0.689-0.614,1.194-1.212l0.125-0.149
			c0.016-0.021,0.035-0.038,0.059-0.052c0.023-0.013,0.048-0.02,0.074-0.02c0.052,0.011,0.088,0.021,0.109,0.031
			c0.016,0.037,0.025,0.069,0.027,0.098c0.002,0.029,0.001,0.059-0.004,0.09l-0.466,1.703h1.294l-0.094,0.54h-1.356l-1.454,5.25
			c-0.026,0.094-0.018,0.183,0.023,0.269c0.042,0.086,0.112,0.129,0.211,0.129c0.136,0,0.326-0.134,0.571-0.401
			c0.141-0.145,0.378-0.43,0.712-0.856l0.203,0.117l-0.109,0.163c-0.447,0.67-0.84,1.135-1.181,1.397
			c-0.34,0.262-0.663,0.393-0.97,0.393c-0.265,0-0.457-0.071-0.577-0.212c-0.12-0.143-0.179-0.303-0.179-0.48
			C217.728,326.344,217.73,326.295,217.736,326.24z"/>
		<path style="&st5;" d="M222.699,331.77c1.272-1.319,2.135-2.288,2.59-2.906c0.456-0.618,0.683-1.221,0.683-1.808
			c0-0.515-0.139-0.906-0.417-1.176c-0.278-0.269-0.61-0.403-0.996-0.403c-0.476,0-0.862,0.174-1.157,0.521
			c-0.164,0.19-0.32,0.484-0.469,0.88l-0.224-0.047c0.174-0.798,0.469-1.352,0.884-1.662c0.416-0.311,0.861-0.466,1.338-0.466
			c0.587,0,1.063,0.185,1.426,0.555s0.545,0.822,0.545,1.356c0,0.57-0.197,1.118-0.59,1.646c-0.394,0.527-1.25,1.467-2.566,2.817
			h2.396c0.334,0,0.569-0.04,0.705-0.12s0.289-0.274,0.459-0.583l0.135,0.062l-0.576,1.453h-4.167V331.77z"/>
	</g>
	<g>
		<g>
			<path d="M30.053,233.544c0.465-0.116,0.833-0.331,1.103-0.646s0.809-1.158,1.615-2.531l6.134-10.495h0.461l2.015,11.878
				c0.129,0.766,0.282,1.242,0.46,1.43c0.177,0.188,0.555,0.31,1.135,0.364v0.344h-5.192v-0.344c0.622-0.062,1.025-0.136,1.21-0.225
				c0.294-0.137,0.441-0.402,0.441-0.798c0-0.102-0.004-0.211-0.011-0.326c-0.007-0.116-0.017-0.215-0.031-0.297l-0.443-2.745
				h-4.471l-1.32,2.355c-0.089,0.157-0.167,0.324-0.236,0.501c-0.116,0.313-0.174,0.576-0.174,0.787
				c0,0.267,0.091,0.454,0.271,0.562c0.182,0.109,0.504,0.171,0.969,0.185v0.344h-3.936V233.544z M38.829,228.403l-0.878-5.444
				l-3.051,5.444H38.829z"/>
		</g>
		<g>
			<path d="M32.098,214.95h10.551l-0.195,0.969H31.903L32.098,214.95z"/>
		</g>
	</g>
	<g>
		<g>
			<path d="M30.053,301.547c0.465-0.117,0.833-0.332,1.103-0.646s0.809-1.158,1.615-2.531l6.134-10.494h0.461l2.015,11.877
				c0.129,0.766,0.282,1.242,0.46,1.43c0.177,0.189,0.555,0.311,1.135,0.365v0.344h-5.192v-0.344
				c0.622-0.062,1.025-0.137,1.21-0.225c0.294-0.137,0.441-0.402,0.441-0.799c0-0.102-0.004-0.211-0.011-0.326
				s-0.017-0.215-0.031-0.297l-0.443-2.744h-4.471l-1.32,2.355c-0.089,0.156-0.167,0.324-0.236,0.5
				c-0.116,0.314-0.174,0.576-0.174,0.787c0,0.268,0.091,0.455,0.271,0.562c0.182,0.109,0.504,0.172,0.969,0.186v0.344h-3.936
				V301.547z M38.829,296.406l-0.878-5.444l-3.051,5.444H38.829z"/>
		</g>
		<g>
			<path d="M60.764,301.891h-1.189l-4.366-12.039l-4.387,12.039h-1.199l5.375-14.109h0.422L60.764,301.891z"/>
		</g>
		<g>
			<g>
				<path d="M67.398,301.546c0.465-0.116,0.833-0.331,1.103-0.646s0.809-1.158,1.615-2.531l6.134-10.495h0.461l2.015,11.878
					c0.129,0.766,0.282,1.242,0.46,1.43c0.177,0.188,0.555,0.31,1.135,0.364v0.344h-5.192v-0.344
					c0.622-0.062,1.025-0.136,1.21-0.225c0.294-0.137,0.441-0.402,0.441-0.798c0-0.102-0.004-0.211-0.011-0.326
					c-0.007-0.116-0.017-0.215-0.031-0.297l-0.443-2.745h-4.471l-1.32,2.355c-0.089,0.157-0.167,0.324-0.236,0.501
					c-0.116,0.313-0.174,0.576-0.174,0.787c0,0.267,0.091,0.454,0.271,0.562c0.182,0.109,0.504,0.171,0.969,0.185v0.344h-3.936
					V301.546z M76.174,296.405l-0.878-5.444l-3.051,5.444H76.174z"/>
			</g>
			<g>
				<path d="M69.443,282.952h10.551l-0.195,0.969H69.248L69.443,282.952z"/>
			</g>
		</g>
	</g>
	<polyline style="&st2;" points="62.65,173.886 112.649,173.886 112.649,141.886 232.651,141.886 	"/>
	<polyline style="&st2;" points="62.65,209.888 132.649,209.888 132.649,241.888 232.651,241.888 	"/>
	<polyline style="&st2;" points="62.65,309.89 142.649,309.89 142.649,277.89 162.649,277.89 162.649,309.89 232.651,309.89 	"/>
	<g>
		<g>
			<line style="&st0;" x1="112.649" y1="199.887" x2="123.649" y2="199.887"/>
			<path style="&st5;" d="M122.629,199.887l-2.19-3.604l0.123-0.081l5.875,2.333c2.047,0.451,4.094,0.9,6.141,1.352
				c-2.047,0.45-4.094,0.9-6.141,1.352l-5.875,2.333l-0.123-0.062L122.629,199.887z"/>
		</g>
	</g>
	<g>
		<g>
			<line style="&st0;" x1="112.649" y1="267.889" x2="133.649" y2="267.889"/>
			<path style="&st5;" d="M132.629,267.889l-2.19-3.604l0.123-0.081l5.875,2.333c2.047,0.451,4.094,0.9,6.141,1.352
				c-2.047,0.45-4.094,0.9-6.141,1.352l-5.875,2.333l-0.123-0.062L132.629,267.889z"/>
		</g>
	</g>
	<g>
		<g>
			<line style="&st0;" x1="112.649" y1="322.891" x2="153.649" y2="322.891"/>
			<path style="&st5;" d="M152.629,322.891l-2.19-3.604l0.123-0.081l5.875,2.333c2.047,0.451,4.094,0.9,6.141,1.352
				c-2.047,0.45-4.094,0.9-6.141,1.352l-5.875,2.333l-0.123-0.062L152.629,322.891z"/>
		</g>
	</g>
</g>
</svg>
